<?xml version="1.0" standalone="no"?>
<!DOCTYPE svg PUBLIC "-//W3C//DTD SVG 20010904//EN"
 "http://www.w3.org/TR/2001/REC-SVG-20010904/DTD/svg10.dtd">
<svg version="1.0" xmlns="http://www.w3.org/2000/svg"
 width="560.000000pt" height="560.000000pt" viewBox="0 0 560.000000 560.000000"
 preserveAspectRatio="xMidYMid meet">
<metadata>
Created by potrace 1.14, written by Peter Selinger 2001-2017
</metadata>
<g transform="translate(0.000000,560.000000) scale(0.100000,-0.100000)"
fill="#000000" stroke="none">
<path d="M2623 5409 c-132 -16 -337 -77 -486 -143 -32 -15 -93 -31 -135 -37
-138 -19 -238 -88 -291 -199 -21 -45 -26 -69 -26 -135 1 -67 5 -89 29 -135 15
-30 39 -67 53 -82 l26 -27 -29 -47 c-24 -40 -47 -58 -145 -114 -578 -331 -987
-864 -1149 -1499 -24 -96 -38 -166 -46 -236 -4 -27 -10 -72 -15 -100 -11 -67
-3 -503 11 -585 6 -36 13 -78 16 -95 50 -293 193 -649 359 -896 256 -379 569
-652 965 -842 258 -124 507 -196 780 -226 110 -11 411 -11 520 0 437 48 883
232 1243 516 154 121 359 344 488 533 196 286 346 675 385 1000 3 25 10 72 14
105 9 63 6 487 -3 502 -3 5 -8 34 -11 64 -13 128 -77 376 -139 539 -181 473
-551 914 -987 1180 -46 27 -87 50 -91 50 -8 0 -37 57 -59 115 -6 17 -5 39 5
72 49 160 -24 311 -163 338 -52 10 -59 15 -81 54 -35 63 -91 96 -164 96 -58 0
-62 2 -113 50 -66 61 -145 107 -245 140 -81 27 -93 30 -179 46 -61 10 -241 9
-337 -2z"/>
</g>
</svg>
